<?xml version="1.0" encoding="utf-8"?>
<!-- Generator: Adobe Illustrator 17.0.0, SVG Export Plug-In . SVG Version: 6.00 Build 0)  -->
<!DOCTYPE svg PUBLIC "-//W3C//DTD SVG 1.1//EN" "http://www.w3.org/Graphics/SVG/1.1/DTD/svg11.dtd">
<svg version="1.1" id="Layer_1" xmlns="http://www.w3.org/2000/svg" xmlns:xlink="http://www.w3.org/1999/xlink" x="0px" y="0px"
	 width="132px" height="24px" viewBox="0 0 132 24" enable-background="new 0 0 132 24" xml:space="preserve">
<path fill="#00FFFC" d="M11.97,22.895h12.249c-1.626-1.029-2.592-2.405-3.624-4.029H11.97c-3.823,0-6.935-3.107-6.935-6.925
	c0-3.817,3.112-6.924,6.935-6.924h8.625c1.032-1.624,1.998-2.999,3.624-4.029H11.554C4.396,0.989,1,5.903,1,11.942
	C1,17.982,5.922,22.895,11.97,22.895z"/>
<path fill="#00FFFC" d="M52.499,0.988H39.833c1.626,1.03,3.008,2.405,4.041,4.029h8.626c3.824,0,6.936,3.107,6.936,6.925
	c0,3.818-3.112,6.925-6.936,6.925h-8.626c-1.032,1.624-2.414,3-4.041,4.029h12.666c6.049,0,10.972-4.915,10.972-10.954
	C63.471,5.903,58.548,0.988,52.499,0.988z"/>
<path fill="#0ADEFA" d="M32.07,0.928c-5.951,0-10.794,4.835-10.794,10.777c0,5.942,4.842,10.777,10.794,10.777
	c5.951,0,10.794-4.835,10.794-10.777C42.863,5.762,38.021,0.928,32.07,0.928z M32.07,18.518c-3.762,0-6.824-3.057-6.824-6.813
	c0-3.756,3.062-6.813,6.824-6.813c3.762,0,6.824,3.057,6.824,6.813C38.893,15.461,35.832,18.518,32.07,18.518z"/>
<path fill="#00FFFC" d="M64.931,1.427h19.994V4.77H68.704v5.621l11.363-0.009l-2.385,3.216l-8.978,0.076v5.801l16.221-0.015v3.358
	l-19.994,0V1.427z"/>
<path fill="#00FFFC" d="M110.5,1.424h4.501v9.2h4.126l6.673-9.2h5.195l-7.892,10.81L131,22.898h-4.843l-7.029-8.919h-4.126v8.919
	H110.5V1.424z"/>
<path fill="#00FFFC" d="M96.685,23.072h12.37c-1.642-1.04-2.618-2.429-3.66-4.069h-8.71c-3.861,0-7.004-3.138-7.004-6.993
	c0-3.855,3.143-6.993,7.004-6.993h8.71c1.043-1.64,2.018-3.029,3.66-4.069H96.265c-7.229,0-10.659,4.963-10.659,11.062
	C85.606,18.11,90.576,23.072,96.685,23.072z"/>
</svg>
